<svg id="Layer_1" data-name="Layer 1" xmlns="http://www.w3.org/2000/svg" viewBox="0 0 15 15"><defs><style>.cls-1{fill:none;stroke:currentColor;stroke-width:0.5px;}</style></defs><path id="Icon_awesome-calendar-alt" data-name="Icon awesome-calendar-alt" class="cls-1" d="M1.66,12.92a1.25,1.25,0,0,0,1.25,1.25h9.18a1.25,1.25,0,0,0,1.25-1.25V5.83H1.66ZM10,7.81a.31.31,0,0,1,.32-.31h1a.31.31,0,0,1,.31.31v1a.31.31,0,0,1-.31.31h-1A.31.31,0,0,1,10,8.86Zm0,3.34a.31.31,0,0,1,.32-.31h1a.31.31,0,0,1,.31.31v1a.31.31,0,0,1-.31.31h-1a.31.31,0,0,1-.32-.31ZM6.67,7.81A.31.31,0,0,1,7,7.5H8a.31.31,0,0,1,.31.31v1A.31.31,0,0,1,8,9.17H7a.31.31,0,0,1-.31-.31Zm0,3.34A.31.31,0,0,1,7,10.84H8a.31.31,0,0,1,.31.31v1A.31.31,0,0,1,8,12.5H7a.31.31,0,0,1-.31-.31ZM3.33,7.81a.31.31,0,0,1,.31-.31h1A.31.31,0,0,1,5,7.81v1a.31.31,0,0,1-.32.31h-1a.31.31,0,0,1-.31-.31Zm0,3.34a.31.31,0,0,1,.31-.31h1a.31.31,0,0,1,.32.31v1a.31.31,0,0,1-.32.31h-1a.31.31,0,0,1-.31-.31Zm8.76-8.66H10.84V1.24a.41.41,0,0,0-.42-.41H9.59a.41.41,0,0,0-.42.41V2.49H5.83V1.24A.41.41,0,0,0,5.41.83H4.58a.41.41,0,0,0-.42.41V2.49H2.91A1.25,1.25,0,0,0,1.66,3.75v.92H13.34V3.75A1.25,1.25,0,0,0,12.09,2.49Z"/></svg>