<svg id="Layer_1" data-name="Layer 1" xmlns="http://www.w3.org/2000/svg" viewBox="0 0 15 15"><path id="Icon_awesome-calendar" data-name="Icon awesome-calendar" class="cls-1" d="M1.44,5.9H13.56a.32.32,0,0,1,.34.3v6.48a1.29,1.29,0,0,1-1.37,1.2H2.47a1.29,1.29,0,0,1-1.37-1.2V6.2A.32.32,0,0,1,1.44,5.9ZM13.9,4.81v-.9a1.29,1.29,0,0,0-1.37-1.2H11.16V1.42a.33.33,0,0,0-.35-.3H9.67a.32.32,0,0,0-.34.3v1.3H5.67V1.42a.32.32,0,0,0-.34-.3H4.18a.32.32,0,0,0-.34.3v1.3H2.47A1.29,1.29,0,0,0,1.1,3.91v.9a.32.32,0,0,0,.34.3H13.56A.32.32,0,0,0,13.9,4.81Z"/></svg>