<svg id="Layer_1" data-name="Layer 1" xmlns="http://www.w3.org/2000/svg" xmlns:xlink="http://www.w3.org/1999/xlink" viewBox="0 0 241 153"><g class="cls-2"><g id="Mask_Group_106" data-name="Mask Group 106"><g class="cls-3"><g id="Repeat_Grid_174" data-name="Repeat Grid 174"><path id="Path_14081" data-name="Path 14081" class="cls-4" d="M-300.27,199.93,81.06-181.4"/><path id="Path_14082" data-name="Path 14082" class="cls-4" d="M-279.27,199.93,102.06-181.4"/><path id="Path_14083" data-name="Path 14083" class="cls-4" d="M-258.27,199.93,123.06-181.4"/><path id="Path_14084" data-name="Path 14084" class="cls-4" d="M-237.27,199.93,144.06-181.4"/><path id="Path_14085" data-name="Path 14085" class="cls-4" d="M-216.27,199.93,165.06-181.4"/><path id="Path_14086" data-name="Path 14086" class="cls-4" d="M-195.27,199.93,186.06-181.4"/><path id="Path_14087" data-name="Path 14087" class="cls-4" d="M-174.27,199.93,207.06-181.4"/><path id="Path_14088" data-name="Path 14088" class="cls-4" d="M-153.27,199.93,228.06-181.4"/><path id="Path_14089" data-name="Path 14089" class="cls-4" d="M-132.27,199.93,249.06-181.4"/><path id="Path_14090" data-name="Path 14090" class="cls-4" d="M-111.27,199.93,270.06-181.4"/><path id="Path_14091" data-name="Path 14091" class="cls-4" d="M-90.27,199.93,291.06-181.4"/><path id="Path_14092" data-name="Path 14092" class="cls-4" d="M-69.27,199.93,312.06-181.4"/><path id="Path_14093" data-name="Path 14093" class="cls-4" d="M-48.27,199.93,333.06-181.4"/><path id="Path_14094" data-name="Path 14094" class="cls-4" d="M-27.27,199.93,354.06-181.4"/><path id="Path_14095" data-name="Path 14095" class="cls-4" d="M-6.27,199.93,375.06-181.4"/><path id="Path_14096" data-name="Path 14096" class="cls-4" d="M14.73,199.93,396.06-181.4"/><path id="Path_14097" data-name="Path 14097" class="cls-4" d="M35.73,199.93,417.06-181.4"/><path id="Path_14098" data-name="Path 14098" class="cls-4" d="M56.73,199.93,438.06-181.4"/><path id="Path_14099" data-name="Path 14099" class="cls-4" d="M77.73,199.93,459.06-181.4"/><path id="Path_14100" data-name="Path 14100" class="cls-4" d="M98.73,199.93,480.06-181.4"/><path id="Path_14101" data-name="Path 14101" class="cls-4" d="M119.73,199.93,501.06-181.4"/><path id="Path_14102" data-name="Path 14102" class="cls-4" d="M140.73,199.93,522.06-181.4"/><path id="Path_14103" data-name="Path 14103" class="cls-4" d="M161.73,199.93,543.06-181.4"/><path id="Path_14104" data-name="Path 14104" class="cls-4" d="M182.73,199.93,564.06-181.4"/><path id="Path_14105" data-name="Path 14105" class="cls-4" d="M203.73,199.93,585.06-181.4"/><path id="Path_14106" data-name="Path 14106" class="cls-4" d="M224.73,199.93,606.06-181.4"/></g></g></g></g></svg>