<svg id="Layer_1" data-name="Layer 1" xmlns="http://www.w3.org/2000/svg" viewBox="0 0 15 15"><defs></defs><path id="Icon_material-location-on" data-name="Icon material-location-on" class="cls-1" d="M7.5,4.75A1.65,1.65,0,0,0,5.85,6.4h0c0,1.24,1.65,3.07,1.65,3.07S9.15,7.64,9.15,6.4A1.65,1.65,0,0,0,7.5,4.75ZM7.5,7a.59.59,0,0,1-.59-.59.6.6,0,0,1,.59-.59.59.59,0,0,1,.59.59A.58.58,0,0,1,7.5,7Z"/><path id="Icon_material-computer" data-name="Icon material-computer" class="cls-1" d="M12.25,11.06a1.18,1.18,0,0,0,1.18-1.19V3.94a1.18,1.18,0,0,0-1.18-1.19H2.75A1.2,1.2,0,0,0,1.57,3.94V9.87a1.18,1.18,0,0,0,1.18,1.19H.38v1.19H14.62V11.06ZM2.75,3.94h9.5V9.87H2.75Z"/></svg>